<svg width="1910" height="334" viewBox="0 0 1910 334" fill="none" xmlns="http://www.w3.org/2000/svg">
<g clip-path="url(#clip0_234_873)">
<path d="M1621.5 2.09961H1365V61.2896H1621.5V2.09961Z" fill="#209EBC"/>
<path d="M1570 136.6H1365V195.79H1570V136.6Z" fill="#209EBC"/>
<path d="M1621.5 274.9H1365V334.09H1621.5V274.9Z" fill="#209EBC"/>
<path d="M1740.3 274.9V2.09961H1679.2V334H1909.4V274.9H1740.3Z" fill="#209EBC"/>
<path d="M256.5 2.09961H0V61.2896H256.5V2.09961Z" fill="#209EBC"/>
<path d="M205 136.6H0V195.79H205V136.6Z" fill="#209EBC"/>
<path d="M256.5 274.9H0V334.08H256.5V274.9Z" fill="#209EBC"/>
<path d="M611 2.09961H536.1L458.8 104.9L381.6 2.09961H306.7L420.4 155.5L287.8 334H362.1L458.2 205.5L554.9 334H630.6L496 155.5L611 2.09961Z" fill="#209EBC"/>
<path d="M800.6 0.200195L649.5 334H715.4L822.7 96.8002L928.7 331L930 334H995.2L845.5 0.200195H800.6Z" fill="#209EBC"/>
<path d="M1139.5 2.09961H1028.8V61.2996H1136.3C1174.7 61.2996 1203.6 70.8996 1224.2 90.2996L1224.6 90.7996C1245.5 109.8 1255.6 135.1 1255.6 168.1C1255.6 201.1 1245.5 226.3 1224.6 245.4C1203.7 264.5 1174.1 274.9 1136.3 274.9H1028.8V334H1139.5C1191.8 334 1234.9 318.6 1267.4 288C1299.9 257.4 1317.4 216.5 1317.4 168.1C1317.4 119.7 1300.5 79.2996 1267.4 48.0996C1234.3 16.8996 1191.9 2.09961 1139.5 2.09961Z" fill="#209EBC"/>
</g>
<defs>
<clipPath id="clip0_234_873">
<rect width="1909.4" height="334" fill="white"/>
</clipPath>
</defs>
</svg>
